<svg xmlns="http://www.w3.org/2000/svg" xmlns:xlink="http://www.w3.org/1999/xlink" fill="none" version="1.1" width="52" height="52" viewBox="0 0 52 52"><defs><filter id="master_svg0_290_00646" filterUnits="objectBoundingBox" color-interpolation-filters="sRGB" x="-12" y="-10" width="58" height="58"><feFlood flood-opacity="0" result="BackgroundImageFix"/><feColorMatrix in="SourceAlpha" type="matrix" values="0 0 0 0 0 0 0 0 0 0 0 0 0 0 0 0 0 0 127 0"/><feOffset dy="2" dx="0"/><feGaussianBlur stdDeviation="3"/><feColorMatrix type="matrix" values="0 0 0 0 0.007843137718737125 0 0 0 0 0.33725491166114807 0 0 0 0 1 0 0 0 0.20000000298023224 0"/><feBlend mode="normal" in2="BackgroundImageFix" result="effect1_dropShadow"/><feBlend mode="normal" in="SourceGraphic" in2="effect1_dropShadow" result="shape"/></filter></defs><g><g><g filter="url(#master_svg0_290_00646)"><rect x="9" y="7" width="34" height="34" rx="17" fill="#0256FF" fill-opacity="1"/></g></g><g><path d="M21.152,15.448L21.152,15.928L22.648,15.928L22.648,16.528L20.64,16.528L20.64,17L22.648,17L22.648,17.624L21.096,17.624L21.096,18.112000000000002L22.648,18.112000000000002L22.648,18.728L21.032,18.728L21.032,19.184L22.648,19.184L22.648,19.816L20.696,19.816L20.696,20.296L22.648,20.296L22.648,21.096L23.216,21.096L23.216,20.296L25.496000000000002,20.296L25.496000000000002,19.816L23.216,19.816L23.216,19.184L25.192,19.184L25.192,18.728L23.216,18.728L23.216,18.112000000000002L25.008,18.112000000000002L25.008,17L25.56,17L25.56,16.528L25.008,16.528L25.008,15.448L23.216,15.448L23.216,14.76538L22.648,14.76538L22.648,15.448L21.152,15.448ZM23.216,17L24.472,17L24.472,17.624L23.216,17.624L23.216,17ZM23.216,16.528L23.216,15.928L24.472,15.928L24.472,16.528L23.216,16.528ZM18.776,18.344C18.776,18.256,18.96,18.152,19.08,18.088L20.064,18.088C19.968,18.8,19.808,19.416,19.6,19.944C19.384,19.624,19.208,19.224,19.072,18.744L18.624,18.912C18.816,19.56,19.056,20.072,19.352,20.48C19.072,21.008,18.712,21.424,18.296,21.728C18.424,21.808,18.648,22.016750000000002,18.736,22.12963C19.12,21.832,19.464,21.432000000000002,19.744,20.928C20.584,21.728,21.752,21.928,23.224,21.928L25.464,21.928C25.496000000000002,21.768,25.608,21.503999999999998,25.695999999999998,21.375999999999998C25.288,21.384,23.552,21.384,23.232,21.384C21.88,21.384,20.776,21.208,19.992,20.432000000000002C20.32,19.688,20.552,18.752,20.672,17.624L20.336,17.544L20.224,17.552L19.536,17.552C19.936,16.951999999999998,20.344,16.2,20.704,15.424L20.32,15.17563L20.128,15.264L18.512,15.264L18.512,15.8L19.896,15.8C19.576,16.512,19.176,17.168,19.032,17.368000000000002C18.872,17.624,18.672,17.823999999999998,18.528,17.856C18.608,17.976,18.728,18.224,18.776,18.344ZM30.336,15.141C30.656,15.67775,30.992,16.39088,31.119999999999997,16.8315L31.664,16.58313C31.536,16.1425,31.176000000000002,15.4535,30.84,14.92475L30.336,15.141ZM26.904,15.31725C27.264,15.69388,27.695999999999998,16.22263,27.904,16.559L28.36,16.1825C28.152,15.854,27.704,15.35738,27.336,14.98888L26.904,15.31725ZM32.656,15.26125C32.391999999999996,16.92763,31.976,18.424500000000002,31.119999999999997,19.62563C30.311999999999998,18.50463,29.823999999999998,17.05575,29.536,15.35738L28.968,15.4535C29.311999999999998,17.352,29.832,18.929000000000002,30.712,20.13C30.152,20.76263,29.424,21.291,28.488,21.691380000000002C28.6,21.819499999999998,28.768,22.04375,28.848,22.18788C29.776,21.7715,30.512,21.227,31.096,20.5945C31.695999999999998,21.267,32.448,21.7875,33.376,22.155749999999998C33.472,21.99563,33.664,21.755499999999998,33.808,21.635379999999998C32.864000000000004,21.299,32.112,20.77863,31.503999999999998,20.106C32.472,18.808880000000002,32.952,17.184,33.272,15.35738L32.656,15.26125ZM26.368000000000002,17.272L26.368000000000002,17.856L27.496000000000002,17.856L27.496000000000002,20.6825C27.496000000000002,21.09888,27.28,21.37113,27.152,21.49925C27.256,21.587249999999997,27.432000000000002,21.7955,27.496000000000002,21.92363C27.624000000000002,21.7635,27.832,21.60338,29.240000000000002,20.6025C29.176000000000002,20.48238,29.088,20.25013,29.04,20.09L28.08,20.75463L28.08,17.272L26.368000000000002,17.272ZM24.432000000000002,24.837600000000002C23.28,25.1669,21.152,25.367800000000003,19.352,25.456L19.352,27.584C19.352,28.833,19.28,30.5705,18.44,31.8035C18.592,31.8676,18.848,32.043800000000005,18.96,32.1558C19.792,30.9308,19.951999999999998,29.1133,19.968,27.792L20.504,27.792C20.872,28.849,21.392,29.7218,22.088,30.4184C21.384,30.9468,20.568,31.3231,19.712,31.5473C19.832,31.6834,19.984,31.9236,20.056,32.0918C20.968,31.8195,21.823999999999998,31.4111,22.56,30.8346C23.256,31.3871,24.104,31.7955,25.12,32.059799999999996C25.2,31.8916,25.368000000000002,31.6514,25.496000000000002,31.5312C24.52,31.3151,23.695999999999998,30.9468,23.024,30.4424C23.832,29.6738,24.464,28.6649,24.816,27.352L24.408,27.176000000000002L24.288,27.208L19.968,27.208L19.968,25.968C21.704,25.887999999999998,23.64,25.68,24.928,25.319499999999998L24.432000000000002,24.837600000000002ZM24.032,27.792C23.704,28.6969,23.192,29.4495,22.544,30.034C21.912,29.4335,21.432,28.6809,21.112000000000002,27.792L24.032,27.792ZM29.336,28.28L29.336,30.7783L29.896,30.7783L29.896,28.768L32.480000000000004,28.768L32.480000000000004,30.7783L33.056,30.7783L33.056,28.28L29.336,28.28ZM31.368000000000002,31.1706C32.016,31.419,32.8,31.8354,33.184,32.147800000000004L33.480000000000004,31.7153C33.08,31.4109,32.288,31.0185,31.64,30.7783L31.368000000000002,31.1706ZM30.904,29.1765L30.904,29.9454C30.904,30.602,30.576,31.2508,28.808,31.6833C28.912,31.7794,29.072,32.0276,29.128,32.1558C31.024,31.6673,31.472,30.8183,31.472,29.9694L31.472,29.1765L30.904,29.1765ZM27.208,24.7729C27.032,25.968,26.72,27.128,26.232,27.887999999999998C26.36,27.96,26.592,28.152,26.68,28.240000000000002C26.96,27.784,27.2,27.192,27.384,26.536L28.416,26.536C28.288,26.936,28.128,27.344,27.976,27.624000000000002L28.432000000000002,27.784C28.672,27.368000000000002,28.92,26.695999999999998,29.112000000000002,26.112000000000002L28.728,25.984L28.631999999999998,26.008L27.528,26.008C27.616,25.6391,27.688000000000002,25.2621,27.752000000000002,24.8771L27.208,24.7729ZM27.208,32.0756C27.311999999999998,31.9235,27.512,31.7553,28.896,30.6901C28.84,30.57,28.759999999999998,30.3618,28.72,30.2096L27.872,30.8343L27.872,27.648L27.328,27.648L27.328,30.8664C27.328,31.2668,27.032,31.5551,26.872,31.6753C26.976,31.7634,27.144,31.9635,27.208,32.0756ZM29.375999999999998,25.304000000000002L29.375999999999998,26.84L30.951999999999998,26.84L30.951999999999998,27.36L28.968,27.36L28.968,27.832L33.688,27.832L33.688,27.36L31.503999999999998,27.36L31.503999999999998,26.84L33.144,26.84L33.144,25.304000000000002L31.503999999999998,25.304000000000002L31.503999999999998,24.773600000000002L30.951999999999998,24.773600000000002L30.951999999999998,25.304000000000002L29.375999999999998,25.304000000000002ZM29.880000000000003,25.728L30.951999999999998,25.728L30.951999999999998,26.416L29.880000000000003,26.416L29.880000000000003,25.728ZM31.503999999999998,25.728L32.616,25.728L32.616,26.416L31.503999999999998,26.416L31.503999999999998,25.728Z" fill="#FFFFFF" fill-opacity="1"/></g></g></svg>